<?xml version="1.0" encoding="UTF-8"?>
<!DOCTYPE svg PUBLIC "-//W3C//DTD SVG 1.1//EN" "http://www.w3.org/Graphics/SVG/1.1/DTD/svg11.dtd">
<!-- Creator: CorelDRAW 2020 (64 Bit) -->
<svg xmlns="http://www.w3.org/2000/svg" xml:space="preserve" width="445.673mm" height="315.122mm" version="1.1" style="shape-rendering:geometricPrecision; text-rendering:geometricPrecision; image-rendering:optimizeQuality; fill-rule:evenodd; clip-rule:evenodd"
viewBox="0 0 44567.3 31512.2"
 xmlns:xlink="http://www.w3.org/1999/xlink"
 xmlns:xodm="http://www.corel.com/coreldraw/odm/2003">
 <defs>
  <style type="text/css">
   <![CDATA[
    .fil0 {fill:#FEFEFE;fill-rule:nonzero}
    .fil2 {fill:url(#id8)}
    .fil3 {fill:url(#id9)}
    .fil1 {fill:url(#id10)}
    .fil4 {fill:url(#id11)}
   ]]>
  </style>
    <mask id="id0">
  <linearGradient id="id1" gradientUnits="userSpaceOnUse" x1="36308.14" y1="13946.83" x2="47227.88" y2="10029.98">
   <stop offset="0" style="stop-opacity:1; stop-color:white"/>
   <stop offset="0.8" style="stop-opacity:0.501961; stop-color:white"/>
   <stop offset="1" style="stop-opacity:0; stop-color:white"/>
  </linearGradient>
     <rect style="fill:url(#id1)" x="35313.35" y="8340.64" width="1004.81" height="9082.64"/>
    </mask>
    <mask id="id2">
  <linearGradient id="id3" gradientUnits="userSpaceOnUse" x1="36308.2" y1="13946.83" x2="47227.95" y2="10029.98">
   <stop offset="0" style="stop-opacity:1; stop-color:white"/>
   <stop offset="0.8" style="stop-opacity:0.501961; stop-color:white"/>
   <stop offset="1" style="stop-opacity:0; stop-color:white"/>
  </linearGradient>
     <rect style="fill:url(#id3)" x="37746.62" y="9743.38" width="1004.81" height="6289.44"/>
    </mask>
    <mask id="id4">
  <linearGradient id="id5" gradientUnits="userSpaceOnUse" x1="36308.27" y1="13946.82" x2="47228" y2="10029.96">
   <stop offset="0" style="stop-opacity:1; stop-color:white"/>
   <stop offset="0.8" style="stop-opacity:0.501961; stop-color:white"/>
   <stop offset="1" style="stop-opacity:0; stop-color:white"/>
  </linearGradient>
     <rect style="fill:url(#id5)" x="40035.07" y="11082.09" width="1004.79" height="3444.38"/>
    </mask>
    <mask id="id6">
  <linearGradient id="id7" gradientUnits="userSpaceOnUse" x1="36308.09" y1="13946.82" x2="47227.81" y2="10029.96">
   <stop offset="0" style="stop-opacity:1; stop-color:white"/>
   <stop offset="0.8" style="stop-opacity:0.501961; stop-color:white"/>
   <stop offset="1" style="stop-opacity:0; stop-color:white"/>
  </linearGradient>
     <rect style="fill:url(#id7)" x="32995.95" y="11114.2" width="1004.81" height="3444.4"/>
    </mask>
  <linearGradient id="id8" gradientUnits="userSpaceOnUse" x1="35374.31" y1="9567.3" x2="43170.95" y2="13970.95">
   <stop offset="0" style="stop-opacity:1; stop-color:#00D7FF"/>
   <stop offset="1" style="stop-opacity:1; stop-color:#87C54C"/>
  </linearGradient>
  <linearGradient id="id9" gradientUnits="userSpaceOnUse" xlink:href="#id8" x1="35374.31" y1="9567.3" x2="43170.95" y2="13970.95">
  </linearGradient>
  <linearGradient id="id10" gradientUnits="userSpaceOnUse" xlink:href="#id8" x1="35374.31" y1="9567.3" x2="43170.95" y2="13970.95">
  </linearGradient>
  <linearGradient id="id11" gradientUnits="userSpaceOnUse" xlink:href="#id8" x1="35374.31" y1="9567.3" x2="43170.95" y2="13970.95">
  </linearGradient>
 </defs>
 <g id="Camada_x0020_1">
  <metadata id="CorelCorpID_0Corel-Layer"/>
  <path class="fil0" d="M7330.91 12692.75c798.69,308.9 1194.99,922.67 1190.92,1839.21 0,1591.3 -981.6,2389.99 -2946.82,2394.04 -886.08,0 -1646.14,-75.18 -2280.22,-221.52l0 -7757.23c715.36,-154.46 1457.15,-231.69 2227.38,-227.61 1804.69,0 2709.04,751.93 2709.04,2251.75 4.07,829.19 -296.71,1402.29 -900.3,1721.36zm-1719.31 -2621.65c-132.1,0 -351.59,8.12 -662.54,24.39l0 1989.62 733.67 0c325.16,0 560.91,-85.38 707.24,-256.09 148.34,-170.7 221.52,-426.76 221.52,-768.2 0,-658.46 -333.31,-989.72 -999.89,-989.72zm93.47 5497.35c398.35,0 684.9,-89.43 861.71,-268.28 176.8,-178.83 264.18,-459.29 264.18,-839.34 0,-699.1 -359.71,-1048.66 -1077.1,-1048.66l-804.8 0 0 2131.88c327.22,16.25 579.21,24.4 756.01,24.4zm8425.88 -2168.45c0,294.67 -14.22,573.1 -46.74,839.31l-3257.77 0c32.52,465.41 142.27,792.6 329.24,983.65 184.93,189 465.39,284.5 839.34,284.5 447.09,0 912.49,-166.63 1392.12,-499.94 349.54,294.69 560.91,688.95 632.04,1184.82 -619.86,479.63 -1349.45,721.47 -2190.82,721.47 -823.06,0 -1477.47,-262.16 -1965.22,-786.5 -487.75,-524.32 -733.64,-1278.3 -733.64,-2261.93 0,-977.53 243.86,-1743.71 727.54,-2302.59 483.7,-556.83 1117.77,-835.26 1898.17,-835.26 731.61,0 1308.79,231.69 1735.56,695.05 426.79,465.38 640.18,1123.84 640.18,1977.42zm-3304.51 -148.36l1745.74 0c0,-753.99 -268.26,-1144.19 -804.78,-1166.53 -276.4,0 -495.87,101.6 -654.4,308.89 -158.51,207.3 -254.04,491.83 -286.56,857.64zm5013.68 3536.17c-276.41,0 -562.96,-24.39 -855.61,-71.13l0 -8013.31c268.26,-48.77 542.63,-73.16 816.99,-73.16 276.38,0 560.91,24.39 855.58,73.16l0 8013.31c-258.08,46.74 -530.41,71.13 -816.96,71.13zm3381.71 -6352.93c-249.96,-162.59 -424.74,-392.23 -524.32,-690.98l1900.17 -1857.5c487.75,227.62 798.7,650.33 928.77,1268.13l-2304.62 1280.35zm3292.31 2965.12c0,294.67 -14.22,573.1 -46.73,839.31l-3257.77 0c32.51,465.41 142.26,792.6 329.24,983.65 184.93,189 465.38,284.5 839.33,284.5 447.09,0 912.5,-166.63 1392.12,-499.94 349.54,294.69 560.91,688.95 632.04,1184.82 -619.86,479.63 -1349.45,721.47 -2190.81,721.47 -823.07,0 -1477.48,-262.16 -1965.23,-786.5 -487.75,-524.32 -733.64,-1278.3 -733.64,-2261.93 0,-977.53 243.86,-1743.71 727.54,-2302.59 483.7,-556.83 1117.77,-835.26 1898.17,-835.26 731.61,0 1308.79,231.69 1735.56,695.05 426.79,465.38 640.18,1123.84 640.18,1977.42zm-3304.5 -148.36l1745.73 0c0,-753.99 -268.26,-1144.19 -804.78,-1166.53 -276.4,0 -495.87,101.6 -654.4,308.89 -158.51,207.3 -254.04,491.83 -286.55,857.64zm9891.15 -2548.5c782.43,0 1371.8,186.97 1768.1,562.95 396.28,373.93 595.45,892.17 595.45,1550.63l0 3899.96c-286.55,46.74 -560.91,71.13 -827.14,71.13 -286.55,0 -562.95,-24.39 -827.14,-71.13l-18.29 -3584.96c0,-583.26 -272.33,-875.91 -816.97,-879.98 -284.53,0 -540.59,77.23 -768.21,231.69 16.25,130.07 24.38,241.84 24.38,333.29l0 3899.96c-278.41,46.74 -552.79,71.13 -827.14,71.13 -286.56,0 -560.91,-24.39 -827.14,-71.13l-12.2 -3584.96c0,-583.26 -272.33,-875.91 -816.97,-879.98 -284.53,0 -532.46,60.98 -743.81,184.95l0 4279.99c-270.31,46.74 -546.69,71.13 -833.24,71.13 -270.3,0 -544.66,-24.39 -827.14,-71.13l0 -5220.95c217.45,-195.1 556.84,-375.98 1018.17,-542.61 459.28,-166.66 961.28,-249.98 1505.92,-249.98 674.72,0 1211.24,146.33 1607.54,441.01 524.34,-294.68 1064.92,-441.01 1625.83,-441.01z"/>
  <path class="fil0" d="M28446.69 18590.13l-52.18 108.82c-17.88,40.23 -44.71,78.99 -78.99,113.27l-135.65 135.65 0 61.1c-67.06,14.92 -119.24,46.21 -155.01,96.9 -35.77,49.17 -68.58,73.03 -98.37,73.03 -52.18,96.88 -180.37,168.44 -384.58,214.65 -73.03,101.35 -178.87,152.02 -318.98,152.02l-47.68 0 0 53.68 -178.88 0 -104.34 81.98 -101.36 8.94c0,46.21 -19.37,70.05 -61.1,70.05l-81.98 65.58 -205.7 0 -122.23 113.29 -366.68 74.53 -47.69 34.27 -205.7 -16.39c-5.97,19.38 -32.8,70.05 -79.01,152.05 -25.33,-20.88 -111.79,-35.79 -257.86,-47.7l-81.98 47.7 -126.71 43.22c-61.1,41.72 -126.69,70.04 -196.73,87.93l-52.19 169.93 90.94 171.42 -47.7 213.15 65.59 244.44 -56.64 35.77 74.53 104.34 0 178.88 34.27 92.41 0 160.99 205.7 -17.89c28.32,26.83 43.22,58.12 43.22,96.88 0,89.42 -62.6,135.63 -187.81,135.63l-52.17 0 -144.57 52.18 -122.23 -223.58 -160.99 -348.79 0 -366.68 -92.41 -178.88 65.58 -70.04 -38.75 -178.88 17.88 -126.69 -61.1 -79.01 -366.69 -65.58 -96.88 -140.1 445.68 -38.75 -43.24 -26.83c10.44,-10.44 28.32,-16.41 52.18,-16.41 31.29,0 52.17,5.97 61.11,16.41l0 -204.21 56.64 -105.84 25.34 -536.59 53.67 -65.59 -17.88 -409.91 34.27 -223.58 17.89 -493.38 56.64 -140.12 70.05 -47.68 -17.89 -131.17c0,-61.12 35.77,-90.92 105.84,-90.92 202.71,0 305.56,68.56 305.56,205.68 0,37.27 -23.86,102.85 -73.03,198.25 -47.7,93.91 -71.56,165.45 -71.56,211.66 0,52.18 32.8,134.16 99.88,244.46l-82 78.99 -8.94 239.97 -113.26 108.83 34.27 187.8 -70.05 205.7 35.78 196.75 -35.78 152.05 17.89 117.75 -65.59 96.89c8.95,98.37 50.67,155.01 126.69,169.91l222.1 -135.63 187.81 0c84.97,-81.98 186.32,-122.23 305.56,-122.23l61.11 -56.64c29.81,11.93 71.56,17.88 126.71,17.88 120.73,0 239.98,-50.67 359.22,-149.06l143.1 -8.94 114.76 -99.86 117.75 0 25.35 -43.22 472.51 -135.65c83.47,-8.95 126.69,-29.8 126.69,-61.11 22.36,-23.86 37.26,-50.69 43.22,-83.47 28.32,5.96 62.62,8.94 99.88,8.94 81.98,0 132.65,-52.16 153.52,-158 92.41,-10.43 143.1,-29.81 152.04,-56.64 8.95,-25.33 32.79,-46.21 70.05,-61.1l52.18 44.71 44.72 -135.66 65.58 -52.16 34.28 -196.75c-49.2,-134.14 -114.78,-253.39 -196.76,-357.73l-90.92 -17.88 -158 -144.6 -330.9 -140.12c-213.15,-159.47 -439.72,-250.41 -681.19,-269.77l0 61.11 -153.52 -105.84 -205.7 8.94 -122.23 -81.98 -143.1 0 -126.69 -70.04 -126.69 0c-61.13,0 -111.79,-23.86 -149.06,-70.07l-348.8 -47.7c-64.09,19.38 -155.01,53.68 -271.27,99.88l-205.7 -126.71 -122.23 74.53 -99.86 -65.59 -187.81 56.65 0 26.83 -78.99 0 -178.88 95.4 -122.22 17.88c-37.27,5.98 -95.41,32.81 -174.4,81.98 -79.01,-98.37 -126.71,-205.68 -144.59,-321.95l92.41 -126.7 0 -61.12c13.43,-26.83 67.08,-43.22 159.5,-50.67 90.92,-7.45 171.42,-29.81 241.47,-67.08 67.08,13.43 108.8,20.88 126.71,20.88 29.79,0 55.15,-13.43 78.99,-38.76l79.01 38.76c49.17,-14.92 78.99,-20.88 90.92,-20.88 35.77,0 61.1,17.89 78.99,56.65l432.27 0 257.86 8.94 296.62 52.16c14.9,19.38 40.23,37.26 76.02,49.19 37.27,13.43 55.15,26.83 55.15,41.75l65.59 -65.59 34.28 0c64.09,0 96.87,11.91 96.87,35.77 0,14.9 -2.97,23.84 -8.94,29.82l126.71 0c159.49,46.21 293.63,73.04 400.96,78.99l26.83 52.16 244.44 0 160.99 108.83c17.88,11.91 80.48,23.84 187.81,35.77l44.72 70.04 43.21 0c155.04,0 262.35,59.64 323.45,178.88l113.29 -61.11 0 108.81c55.15,14.9 131.17,58.14 226.57,131.17l105.82 0 82 126.69 284.69 187.82 0 99.86 187.81 275.75zm2536.92 2065.92c37.26,25.34 56.64,53.66 56.64,81.98 0,73.03 -19.38,113.29 -56.64,122.23 -70.05,113.26 -141.61,171.4 -214.64,171.4 0,25.34 -96.88,123.72 -292.14,296.62 -58.14,13.43 -96.9,31.31 -114.78,49.2 -19.38,19.38 -59.61,56.64 -120.74,111.79 -81.97,2.97 -135.63,37.26 -160.96,104.34l-87.96 26.83 -34.27 -17.88 -26.83 74.52 -26.85 0c-43.22,0 -105.82,17.89 -187.79,52.17 -80.51,35.77 -131.18,55.15 -152.05,61.1l-92.41 35.77 -61.11 0 -52.18 -78.99 -81.98 -70.05c-35.77,-89.44 -80.48,-168.43 -135.63,-235.51l-26.83 -214.64 8.95 -104.35 -43.24 -56.64 8.94 -257.86 -8.94 -222.1 8.94 -110.29c16.41,-25.34 25.35,-49.2 25.35,-68.58 0,-41.72 -20.87,-95.38 -61.12,-162.46 23.86,-247.42 35.77,-384.57 35.77,-409.91 0,-52.16 -23.84,-107.31 -70.05,-162.46l70.05 -34.29 25.35 -341.34 -17.88 -143.08 65.58 -162.48 -47.7 -178.87c49.18,-64.09 74.53,-141.59 74.53,-231.04l0 -296.62 25.34 -70.04 -7.45 -436.74 25.33 -432.27c-40.25,-104.33 -55.15,-217.61 -43.22,-336.85l25.34 -269.8 -25.34 -96.89 43.22 -405.43c32.78,-11.93 67.08,-26.83 102.85,-44.71 35.77,-16.39 59.61,-25.34 67.08,-25.34 5.96,0 17.89,5.96 35.77,17.89l43.22 143.08 92.41 79.01 -65.58 90.92 0 35.77c0,34.28 10.43,71.54 29.81,108.81 -5.95,99.88 -26.82,149.05 -65.58,149.05l26.83 47.71c8.94,183.33 25.33,308.55 47.7,375.63l-74.53 231.03 56.64 78.99c-67.08,116.27 -99.86,229.54 -99.86,341.33 0,58.14 26.83,93.91 78.99,108.83l-61.11 169.91c22.35,55.15 34.28,90.94 34.28,104.34 0,29.82 -11.93,68.58 -34.28,117.75l16.39 105.84 -43.21 287.68 -4.49 135.63c-2.96,40.25 -26.82,135.65 -74.52,283.21l44.71 187.82 -26.83 341.33 -47.7 34.28 56.64 108.81 -38.73 171.42 -35.8 265.31 35.8 65.59 -35.8 26.82c38.76,46.21 56.65,117.77 56.65,214.65 0,16.39 -11.91,52.18 -38.76,104.34l38.76 99.86 -20.85 135.66 38.73 96.87 -17.88 73.04 96.89 293.65 108.81 43.22c104.34,-52.16 172.9,-79.01 205.7,-79.01l52.16 8.94 122.23 -104.32c14.92,-14.92 50.69,-31.31 108.8,-47.7 29.82,-53.66 80.51,-81.98 153.54,-87.96l43.22 -47.7 65.59 7.47 17.88 -43.24 86.46 -25.33 83.47 -61.11 86.46 -26.82c5.96,-2.99 34.28,-28.33 86.44,-79.01 50.69,-49.2 96.9,-84.97 137.13,-108.81 0,-26.83 19.38,-47.7 56.64,-65.58 8.94,11.93 20.87,17.88 34.3,17.88 20.85,0 50.67,-14.9 87.93,-43.22zm3876.94 1012.09l-126.69 61.11 -25.34 78.99c-49.19,11.93 -95.4,28.32 -135.63,47.7l-43.24 -29.82 -65.59 29.82 -140.11 -169.91 0 -196.76 -65.59 -56.64 17.89 -275.75 -52.16 -570.9 34.27 -187.81 -61.1 -101.36 78.99 -43.22 -52.16 -78.99 16.39 -81.99 44.73 -35.77 -8.96 -108.81 47.7 0 0 -178.87 17.89 -87.93c-23.84,-5.98 -50.67,-32.81 -83.48,-81.98l-140.09 65.56c-37.26,71.57 -76.02,120.74 -117.77,143.11l-8.94 96.89 -99.86 43.22 -17.89 126.69 -61.12 43.24 0 65.59c-58.12,43.22 -99.87,96.87 -126.69,158l-61.11 38.73 -135.65 239.98 -213.15 214.64 -70.05 117.77 -187.81 196.74 -47.7 104.34 -257.87 178.88 -287.67 341.33 -96.9 25.33c-28.3,5.98 -74.53,37.27 -135.63,92.42l-25.34 0c-49.19,0 -89.44,-49.18 -117.74,-144.58 -225.08,-87.95 -342.85,-213.15 -354.76,-375.63l70.05 -43.22c-40.24,-113.28 -64.1,-231.03 -70.05,-350.27l-47.7 -34.28 31.31 -47.7c10.41,-17.89 19.36,-47.7 25.33,-89.45 5.96,-43.22 14.9,-101.35 26.83,-177.38l61.1 -332.39c-5.95,-10.43 -8.94,-31.29 -8.94,-61.1 0,-31.31 8.94,-65.59 26.83,-99.86 -11.91,-43.24 -17.89,-76.03 -17.89,-96.9 0,-22.35 5.98,-53.66 17.89,-90.92l34.3 -8.94c49.17,-67.08 74.52,-123.73 74.52,-169.93 0,-29.82 -10.43,-52.16 -28.32,-70.05 -19.38,-17.88 -28.32,-29.81 -28.32,-34.3 0,-20.85 14.9,-35.77 47.7,-44.71 -43.24,-8.94 -65.58,-26.83 -65.58,-56.64 0,-28.32 29.79,-43.22 90.92,-43.22l0 -17.89c0,-64.09 19.38,-122.23 55.15,-177.38 35.77,-53.65 56.64,-90.92 59.63,-110.29l-61.13 -17.89 117.75 -187.82 0 -43.21c0,-125.22 40.25,-232.53 122.23,-323.45l-8.94 -160.99 38.75 -26.83c-19.37,-26.83 -29.81,-55.15 -29.81,-87.95 0,-16.39 17.88,-25.33 56.64,-25.33l0 -144.58c28.32,-8.94 43.22,-22.37 43.22,-43.24 0,-20.85 -2.97,-37.26 -8.94,-47.68 17.9,-26.85 58.14,-74.53 122.23,-144.6 64.09,-70.04 107.33,-128.18 126.71,-174.39l26.83 0c67.06,0 99.86,-16.39 99.86,-49.19 0,-10.44 -8.94,-25.34 -25.33,-43.22 119.24,0 181.83,-22.37 187.79,-70.07l160.99 -81.98 463.56 38.76 0 34.28 375.63 79.01 34.28 0c55.15,0 83.47,25.33 83.47,74.53l43.22 -17.89c14.92,52.16 47.7,78.99 99.88,78.99l44.71 -8.94 77.5 79.01 187.81 47.7 0 78.99c84.97,-55.15 192.28,-102.85 323.45,-144.58l0 144.58 -43.22 0 86.46 43.22 -16.41 17.88 70.07 226.58 -79.01 87.95 -35.77 147.56c-10.44,50.67 -38.76,111.8 -81.98,183.34l56.64 114.76c-5.95,8.96 -22.36,31.31 -50.69,70.07 -26.82,37.26 -41.72,104.34 -41.72,199.72 17.88,8.94 26.83,23.86 26.83,44.73l-17.89 73.04 8.94 61.1 -26.82 96.9 17.88 83.47 -52.16 61.1 17.89 195.27 -26.85 26.83 26.85 38.75 -26.85 26.83c5.97,5.96 8.96,17.89 8.96,34.28 0,26.85 -8.96,52.18 -26.85,79.01l26.85 56.64 -43.24 78.99c-23.84,14.92 -35.77,56.64 -35.77,126.71l35.77 113.27 -83.47 108.82c29.81,61.11 56.64,101.36 83.47,117.75 -44.71,61.11 -80.48,177.38 -110.3,345.82l74.53 17.88 -8.94 47.7c5.95,8.94 8.94,28.32 8.94,61.11 0,46.2 -20.87,105.83 -65.59,178.87l56.65 0 26.83 135.63 178.87 16.39 61.1 114.78c-17.88,10.44 -25.33,20.88 -25.33,29.82 0,23.84 28.32,52.16 86.46,87.93l-8.95 0c-11.93,0 -16.41,2.99 -16.41,8.94 0,13.43 23.86,41.75 73.04,82zm-457.59 -3213.65l-52.18 -160.98 -144.58 -44.72 -248.92 -222.09c-37.26,-23.84 -68.57,-35.77 -92.41,-35.77 -13.43,0 -37.27,5.95 -68.57,17.89l-44.72 -43.22 -143.1 0 -44.71 -56.65 -99.87 38.76 -43.21 -38.76 -74.53 20.85 -140.12 -20.85c-67.08,0 -171.42,32.79 -314.5,99.87l17.88 35.77 -79.01 25.33 -17.88 35.79 -99.87 11.91 0 53.66c-58.13,34.29 -126.69,128.2 -205.7,283.21 -49.19,180.35 -102.85,333.89 -160.96,459.08l70.04 34.3 -113.28 99.86 34.29 70.05c-52.18,79.01 -79.01,171.42 -79.01,275.77l0 47.7 -65.58 96.87 0 152.05c-46.21,52.16 -71.54,105.82 -77.52,160.97l-35.77 35.79 0 160.96 -29.79 44.72c0,58.13 -11.93,137.14 -35.79,239.97l47.7 108.83c-37.27,14.9 -78.99,50.67 -126.69,108.8l35.77 70.05 -52.17 70.07 70.05 178.87 -78.99 108.81 8.94 214.64 -26.82 99.86 43.22 26.83 17.88 61.12c49.2,20.86 92.42,53.66 126.69,99.87l205.7 -47.7c37.27,-87.96 102.85,-134.16 196.76,-140.12l-17.89 -65.58c90.92,-22.37 137.13,-35.78 141.61,-37.27 4.46,-1.49 11.91,-17.88 19.36,-49.19 8.96,-32.79 35.79,-62.6 79.01,-92.42l17.89 0c17.88,0 25.33,-11.91 25.33,-34.27l162.48 -187.82 -35.77 0 96.88 -87.93c31.31,-31.31 80.5,-59.63 144.59,-81.98l64.09 -171.42c111.8,-46.21 174.4,-108.81 187.8,-187.82l53.68 0 86.43 -113.26 -17.88 -74.53 83.47 -16.41c-11.91,-20.86 -17.89,-35.77 -17.89,-44.72 0,-8.94 20.88,-40.25 61.13,-98.37 41.72,-56.64 73.03,-102.85 96.87,-141.6l38.76 17.88c8.94,-70.05 41.75,-123.72 96.9,-160.99 11.91,-47.68 34.27,-84.94 70.04,-111.79 34.28,-28.3 59.64,-41.72 73.04,-41.72l61.12 0 8.95 -108.81c11.91,-11.93 17.88,-23.86 17.88,-35.77 0,-16.41 -8.94,-34.3 -26.83,-52.18 53.66,-86.44 95.39,-141.61 126.69,-160.97l17.89 -96.89 61.1 -47.71 -17.88 -78.98c35.77,-55.15 56.64,-108.83 65.58,-160.99l79.01 -78.99 17.89 -235.52zm6021.85 1593.4c-61.1,47.7 -90.92,101.36 -90.92,162.48 0,22.35 2.99,52.17 7.45,86.44l53.66 323.45 -53.66 348.8 17.89 144.58 -43.22 122.23 25.33 393.51 -25.33 56.65 0 318.96 -17.89 253.4 35.77 86.46 -17.88 590.26 43.22 108.8 -43.22 52.18 25.33 162.46 -43.22 43.22 35.77 135.66 -35.77 0 -17.88 70.04 0 134.16 -43.24 110.3 17.88 77.52 -187.79 332.39 -17.89 169.91 -47.7 -8.94 -79.01 105.83c-76.02,83.48 -129.68,159.5 -160.96,226.58l-162.49 96.87c-46.2,135.64 -131.17,204.21 -256.36,204.21 4.46,5.95 7.44,14.9 7.44,26.83 0,20.87 -10.43,29.81 -34.27,29.81l-38.76 35.77c-84.97,40.25 -134.16,76.03 -149.06,104.35l-99.86 0 -26.83 35.77 -117.77 -26.83 -178.87 117.75 -105.82 -17.89 -287.67 44.72 -79.01 -8.95 -43.22 8.95 -262.35 -44.72 -70.04 0 -90.92 -81.98 -43.24 8.95 -314.51 -105.84 -223.58 -34.28 -52.17 -92.41 -144.57 -16.39 -61.13 -153.54 -81.97 -26.83 -122.23 -169.91 -126.69 -61.12 -117.75 -169.91c-17.91,-23.86 -43.24,-44.74 -74.53,-65.59l-140.11 -79.01 47.7 -113.29 -82 -90.92 8.94 -53.65c0,-61.13 -20.85,-137.13 -62.6,-231.04 -10.43,-49.19 -16.39,-90.92 -16.39,-126.71 0,-46.2 11.93,-105.81 34.28,-178.85l35.77 -99.88 0 -26.83 61.12 -34.28 20.88 -44.71 35.77 8.94 20.85 -104.34c8.94,-43.22 79.01,-125.2 210.18,-244.44l126.69 -35.79 214.64 -187.79 248.92 17.88c40.26,-61.12 76.03,-90.92 108.81,-90.92 40.25,0 61.12,23.84 61.12,73.04 0,17.88 -2.98,32.78 -8.94,44.71l-117.77 52.16 -78.99 65.59c-23.84,17.88 -90.92,43.22 -205.7,79.01l-61.1 126.69 -126.71 0c-61.11,107.31 -143.08,210.16 -248.92,310.04l8.94 169.91c-49.17,73.04 -73.03,147.56 -73.03,226.57l-44.72 26.83 196.76 462.07 178.85 65.59 26.85 105.84 278.74 269.79 105.81 31.29c40.26,13.42 77.52,35.77 113.29,65.58l126.69 117.75 143.1 0 110.3 104.34 143.1 -17.88 61.11 56.64 511.26 -20.87 70.05 -17.89 0 17.89c0,31.31 11.93,47.7 34.3,47.7 2.96,0 10.41,-5.95 22.34,-17.88 61.13,-61.11 138.62,-90.92 231.04,-90.92l44.71 0 283.22 -117.75 0 38.74c37.26,-29.8 56.64,-47.71 56.64,-56.65l-29.82 0c10.44,-11.91 29.82,-17.88 56.65,-17.88 16.39,0 31.31,2.98 43.22,8.94 8.94,-52.16 34.29,-78.99 79.01,-78.99l29.81 0 17.89 -52.16c40.23,0 61.1,-23.86 61.1,-74.53l8.94 0c31.31,0 56.65,-20.87 74.53,-65.59 16.39,-43.24 43.22,-67.08 77.52,-68.57l26.83 20.87c8.94,-76.02 53.65,-138.62 135.63,-187.81 70.07,-64.09 104.34,-144.58 104.34,-244.46l47.71 0c90.91,-192.28 156.5,-342.83 196.75,-454.62l-17.9 -25.34 17.9 -226.55 43.22 -26.85 0 -205.68 35.77 -61.12 -78.99 -99.86c52.16,-52.17 78.99,-81.98 78.99,-87.96 0,-5.95 -5.95,-28.32 -17.88,-67.06 -11.93,-38.75 -17.89,-84.96 -17.89,-137.14l0 -35.77 17.89 -366.67 0 -520.21 -43.22 -99.86 43.22 -178.87 -17.89 -205.7 0 -471.01 -16.39 -101.36 34.28 -95.4 -34.28 -83.47 34.28 -77.52 -17.89 -332.39 -81.98 -78.99 81.98 -81.98 -16.39 -70.06 16.39 -135.64 -43.22 -52.18 17.89 -110.3 -56.65 -104.32c-26.82,29.79 -64.09,52.16 -113.28,70.05l-44.71 108.8 -73.04 44.71 -17.88 104.35 -144.6 99.86 17.88 44.73 -70.04 99.87 -61.13 17.88 -26.83 43.22 -134.13 43.24 0 117.75 -65.59 0 -26.83 105.84 -301.1 278.71 -205.7 231.06 -108.81 35.77 -52.16 81.97 -205.7 187.82 -83.47 17.88c-2.99,5.96 -56.64,53.66 -160.99,144.58l-26.82 79.01 -77.52 43.22 -74.53 0 -43.22 83.47 -96.87 16.39 -178.88 178.87 -160.98 26.83 -65.59 61.11c-44.71,14.91 -104.32,35.79 -178.85,65.58l-26.85 70.07c-29.79,17.88 -96.87,25.33 -205.68,25.33 -128.2,0 -207.19,-25.33 -240,-77.51l-178.85 -305.57 -17.88 -144.57 -90.94 -327.93 0 -287.68 -35.77 -87.93 56.64 -217.63 -38.76 -140.12 38.76 -38.73 8.94 -114.78 61.13 -134.16 -8.95 -205.68 44.72 -117.77 -44.72 -78.99 87.94 -409.91 -26.83 -271.29 26.83 -239.97 -78.99 -332.39 35.77 -77.52 -35.77 -65.58 70.04 -175.89 -34.27 -73.03 61.1 -53.66 0 -117.75 99.86 -7.47c26.85,74.53 65.59,134.16 117.77,178.88l-29.81 61.12 56.64 11.91 -26.83 114.78 70.05 126.69 -25.34 61.13 25.34 143.08 43.24 35.77 -61.13 134.16 53.66 232.53 -105.82 143.08 52.16 61.12 -52.16 341.34 0 314.5 -38.76 43.22 -35.77 463.56 -95.4 126.71 17.89 81.98 0 205.7 43.24 122.23 -43.24 99.86 16.39 153.52 -34.28 70.07 34.28 78.99 0 108.82 96.89 99.87 29.82 105.81 61.1 -8.94 17.89 52.18 70.07 -43.24 187.79 16.42 65.59 -143.11 222.09 -87.95 8.94 26.85c5.98,-50.69 29.82,-84.97 70.07,-105.84 40.25,-19.38 90.92,-55.15 150.55,-107.31 59.61,-50.69 123.7,-87.95 190.78,-110.32l-8.94 47.7c28.32,-11.91 43.22,-28.32 43.22,-47.7 0,-5.95 -5.96,-20.85 -17.89,-43.22 58.14,-5.95 155.04,-74.53 290.67,-204.21 135.63,-129.67 274.25,-204.2 417.35,-225.07l108.81 -178.86 17.88 52.17 0 -77.52c86.46,-17.89 134.16,-65.59 140.12,-144.58l99.88 -70.04c58.12,-25.36 87.93,-68.58 87.93,-126.71l0 -25.34c80.49,-58.14 156.51,-98.37 226.58,-117.75l17.88 -70.06c110.3,-128.19 184.83,-228.05 222.09,-298.12 90.92,-46.2 153.52,-105.82 187.8,-178.85l160.99 -339.86 -7.45 -205.7 68.57 -34.28 0 -171.4 -43.24 -143.1 26.83 -131.17 -78.99 -47.7 -8.94 -26.83c0,-20.88 14.9,-53.66 46.2,-98.37 29.82,-44.71 50.67,-83.47 58.14,-116.28l35.77 -25.33 8.94 -61.1c34.28,-23.86 68.56,-35.8 99.87,-35.8l187.81 187.82 8.95 105.84 4.46 86.44c2.98,20.87 29.81,77.51 83.47,171.42l-53.66 56.64 17.89 122.23 -17.89 99.87 74.53 78.98 -74.53 8.95 0 126.71 -43.22 160.97 43.22 231.05 -7.45 171.4 25.34 61.13 -17.89 160.97 83.47 287.67z"/>
  <g id="_2375538764016">
   <path class="fil1" style="mask:url(#id0)" d="M35815.75 8350.64l0.02 0c270.84,0 492.39,221.58 492.39,492.39l0 8077.86c0,270.83 -221.55,492.39 -492.39,492.39l-0.02 0c-270.84,0 -492.4,-221.56 -492.4,-492.39l0 -8077.86c0,-270.81 221.56,-492.39 492.4,-492.39z"/>
   <path class="fil2" style="mask:url(#id2)" d="M38249.02 9753.38l0.02 0c270.85,0 492.39,221.58 492.39,492.39l0 5284.65c0,270.86 -221.54,492.4 -492.39,492.4l-0.02 0c-270.84,0 -492.4,-221.54 -492.4,-492.4l0 -5284.65c0,-270.81 221.56,-492.39 492.4,-492.39z"/>
   <path class="fil3" style="mask:url(#id4)" d="M40537.47 11092.09l0 0c270.85,0 492.39,221.56 492.39,492.39l0 2439.6c0,270.85 -221.54,492.39 -492.39,492.39l0 0c-270.84,0 -492.4,-221.54 -492.4,-492.39l0 -2439.6c0,-270.83 221.56,-492.39 492.4,-492.39z"/>
   <path class="fil4" style="mask:url(#id6)" d="M33498.34 11124.2l0.03 0c270.83,0 492.39,221.56 492.39,492.39l0 2439.61c0,270.86 -221.56,492.4 -492.39,492.4l-0.03 0c-270.83,0 -492.39,-221.54 -492.39,-492.4l0 -2439.61c0,-270.83 221.56,-492.39 492.39,-492.39z"/>
  </g>
 </g>
</svg>
